<svg width="20" height="20" viewBox="0 0 20 20" fill="none" xmlns="http://www.w3.org/2000/svg">
<path d="M4.1665 5.16667C4.1665 4.23325 4.1665 3.76654 4.34816 3.41002C4.50795 3.09641 4.76292 2.84144 5.07652 2.68166C5.43304 2.5 5.89975 2.5 6.83317 2.5H13.1665C14.0999 2.5 14.5666 2.5 14.9232 2.68166C15.2368 2.84144 15.4917 3.09641 15.6515 3.41002C15.8332 3.76654 15.8332 4.23325 15.8332 5.16667V14.9091C15.8332 15.7463 15.8332 16.1649 15.6595 16.3898C15.5084 16.5857 15.278 16.7043 15.0307 16.7134C14.7467 16.724 14.4061 16.4807 13.7249 15.9941L9.99984 13.3333L6.27482 15.9941C5.59357 16.4807 5.25295 16.724 4.96896 16.7134C4.72171 16.7043 4.49131 16.5857 4.34014 16.3898C4.1665 16.1649 4.1665 15.7463 4.1665 14.9091V5.16667Z" stroke="white" stroke-width="1.66667" stroke-linecap="round" stroke-linejoin="round"/>
</svg>
